<?xml version="1.0" encoding="utf-8"?>
      <svg
        version="1.1"
        id="PoweredByPortbase"
        xmlns="http://www.w3.org/2000/svg"
        x="0px"
        y="0px"
        viewBox="0 0 76.58 9.06"
        enable-background="new 0 0 76.58 9.06;"
      >
        <g>
          <path
            style="fill: #004478"
            d="M76.39,1.03c-0.03,0.08-0.08,0.15-0.13,0.21c-0.06,0.06-0.12,0.11-0.2,0.14c-0.08,0.03-0.16,0.05-0.25,0.05
          c-0.09,0-0.17-0.02-0.25-0.05c-0.08-0.03-0.14-0.08-0.2-0.14c-0.06-0.06-0.1-0.13-0.13-0.21c-0.03-0.08-0.05-0.17-0.05-0.26
          c0-0.09,0.02-0.18,0.05-0.26c0.03-0.08,0.08-0.15,0.13-0.21c0.06-0.06,0.12-0.1,0.2-0.14c0.08-0.03,0.16-0.05,0.25-0.05
          c0.09,0,0.17,0.02,0.25,0.05c0.08,0.03,0.14,0.08,0.2,0.14c0.06,0.06,0.1,0.13,0.13,0.21c0.03,0.08,0.05,0.17,0.05,0.26
          C76.44,0.86,76.43,0.95,76.39,1.03 M76.52,0.46c-0.04-0.09-0.1-0.17-0.17-0.24c-0.07-0.07-0.15-0.12-0.24-0.16
          C76.02,0.02,75.92,0,75.81,0c-0.11,0-0.21,0.02-0.3,0.06c-0.09,0.04-0.18,0.09-0.25,0.16c-0.07,0.07-0.13,0.15-0.17,0.24
          c-0.04,0.09-0.06,0.19-0.06,0.3c0,0.11,0.02,0.21,0.06,0.31c0.04,0.09,0.1,0.18,0.17,0.25c0.07,0.07,0.15,0.12,0.25,0.16
          c0.09,0.04,0.19,0.06,0.3,0.06c0.11,0,0.2-0.02,0.3-0.06c0.09-0.04,0.17-0.09,0.24-0.16c0.07-0.07,0.13-0.15,0.17-0.25
          c0.04-0.09,0.06-0.2,0.06-0.31C76.58,0.66,76.56,0.56,76.52,0.46 M75.8,0.72h-0.15V0.43h0.18c0.02,0,0.05,0,0.07,0.01
          c0.02,0,0.05,0.01,0.06,0.02C75.99,0.47,76,0.48,76.02,0.5c0.01,0.02,0.02,0.04,0.02,0.07c0,0.04-0.01,0.06-0.02,0.08
          C76,0.67,75.98,0.69,75.96,0.7c-0.02,0.01-0.05,0.02-0.07,0.02C75.86,0.72,75.83,0.72,75.8,0.72 M76.11,0.75
          c0.04-0.04,0.07-0.1,0.07-0.18c0-0.09-0.03-0.15-0.08-0.19c-0.05-0.04-0.13-0.06-0.24-0.06h-0.35v0.9h0.14V0.83h0.15l0.24,0.39
          h0.15l-0.26-0.4C76,0.81,76.06,0.79,76.11,0.75 M55.82,6.38h-0.46c-0.13,0-0.23-0.01-0.3-0.01c-0.07-0.01-0.12-0.03-0.15-0.05
          c-0.03-0.02-0.05-0.05-0.06-0.09c-0.01-0.05-0.02-0.12-0.02-0.21V3.03h0.99v-1.1h-0.99l0-1.79h-0.98l0,1.79l-0.86,0
          c-0.45,0-0.83,0.08-1.14,0.28c-0.24,0.16-0.44,0.38-0.61,0.66V2.05H50.3v5.13h0.98V4.88c0-0.31,0.03-0.59,0.09-0.83
          c0.06-0.24,0.16-0.43,0.29-0.6c0.13-0.16,0.3-0.28,0.52-0.37c0.21-0.08,0.46-0.13,0.77-0.13h0.9l0,3.13c0,0.24,0.02,0.43,0.07,0.58
          c0.05,0.15,0.13,0.28,0.23,0.37c0.11,0.09,0.24,0.15,0.4,0.18c0.16,0.03,0.34,0.04,0.56,0.04h0.71V6.38z M72.26,4.05
          c0.02-0.15,0.05-0.29,0.11-0.42c0.07-0.16,0.16-0.3,0.27-0.42c0.11-0.12,0.25-0.21,0.41-0.28c0.16-0.07,0.34-0.1,0.54-0.1
          c0.19,0,0.37,0.03,0.53,0.1c0.16,0.07,0.3,0.16,0.41,0.28c0.12,0.12,0.21,0.26,0.28,0.42c0.06,0.14,0.1,0.28,0.11,0.43H72.26z
           M75.5,2.94c-0.18-0.29-0.43-0.53-0.73-0.72c-0.31-0.19-0.69-0.29-1.14-0.29c-0.35,0-0.67,0.07-0.97,0.2
          c-0.29,0.13-0.55,0.32-0.77,0.56c-0.22,0.24-0.38,0.52-0.5,0.84c-0.12,0.32-0.18,0.68-0.18,1.07c0.01,0.39,0.07,0.74,0.17,1.07
          c0.1,0.33,0.26,0.62,0.46,0.86c0.21,0.24,0.46,0.43,0.76,0.56c0.3,0.13,0.66,0.2,1.06,0.2h0c0.57,0,1.06-0.15,1.45-0.44
          c0.39-0.3,0.64-0.74,0.75-1.31l0.02-0.1h-0.98L74.9,5.5c-0.07,0.31-0.2,0.53-0.4,0.68c-0.2,0.15-0.46,0.22-0.8,0.22
          c-0.26,0-0.48-0.04-0.66-0.13c-0.19-0.08-0.34-0.2-0.46-0.34c-0.12-0.14-0.21-0.3-0.26-0.49c-0.05-0.16-0.07-0.33-0.07-0.51h3.71
          l0-0.08c0-0.05,0-0.1,0-0.15c0-0.26-0.03-0.54-0.09-0.82C75.81,3.55,75.68,3.23,75.5,2.94 M70.21,6.94
          c0.21-0.13,0.39-0.3,0.52-0.51c0.13-0.21,0.2-0.48,0.2-0.79c0-0.25-0.05-0.46-0.15-0.64c-0.1-0.17-0.23-0.31-0.39-0.42
          c-0.16-0.11-0.34-0.2-0.54-0.27c-0.2-0.07-0.4-0.12-0.61-0.17c-0.19-0.04-0.38-0.09-0.58-0.13c-0.19-0.04-0.36-0.09-0.5-0.15
          c-0.15-0.06-0.26-0.13-0.35-0.21c-0.08-0.08-0.12-0.17-0.12-0.29c0-0.11,0.03-0.2,0.08-0.26c0.06-0.07,0.13-0.13,0.22-0.17
          c0.09-0.04,0.2-0.08,0.32-0.09c0.12-0.02,0.24-0.03,0.36-0.03c0.13,0,0.26,0.01,0.38,0.04c0.12,0.03,0.23,0.07,0.34,0.13
          c0.1,0.06,0.18,0.13,0.24,0.23c0.06,0.09,0.1,0.21,0.11,0.36l0.01,0.08h0.98L70.7,3.56c-0.02-0.31-0.09-0.57-0.2-0.79
          c-0.11-0.21-0.27-0.38-0.46-0.51C69.84,2.14,69.62,2.05,69.38,2c-0.24-0.05-0.51-0.07-0.79-0.07c-0.22,0-0.45,0.03-0.68,0.08
          c-0.23,0.06-0.44,0.14-0.62,0.26c-0.19,0.12-0.34,0.27-0.46,0.46c-0.12,0.19-0.18,0.43-0.18,0.69c0,0.33,0.08,0.61,0.26,0.8
          c0.17,0.19,0.38,0.34,0.63,0.44c0.25,0.1,0.51,0.18,0.8,0.24c0.28,0.05,0.54,0.11,0.78,0.18c0.23,0.07,0.42,0.15,0.57,0.25
          c0.14,0.1,0.2,0.22,0.2,0.41c0,0.14-0.03,0.24-0.1,0.33c-0.07,0.09-0.15,0.15-0.26,0.2c-0.11,0.05-0.23,0.08-0.37,0.1
          C69.03,6.39,68.9,6.4,68.78,6.4c-0.16,0-0.32-0.02-0.47-0.05c-0.15-0.03-0.28-0.08-0.4-0.15c-0.11-0.07-0.2-0.15-0.27-0.27
          l-0.07,0.04l0.07-0.05c-0.07-0.11-0.11-0.25-0.11-0.41l0-0.08h-0.98l0,0.09c0.01,0.32,0.08,0.59,0.2,0.82
          c0.12,0.23,0.28,0.41,0.49,0.55c0.2,0.14,0.43,0.24,0.69,0.3c0.26,0.06,0.52,0.09,0.8,0.09c0.25,0,0.51-0.02,0.77-0.07
          C69.76,7.16,70,7.07,70.21,6.94 M64.95,5.36c0,0.1-0.02,0.21-0.08,0.33c-0.05,0.12-0.13,0.23-0.25,0.34
          c-0.11,0.1-0.26,0.19-0.44,0.26c-0.18,0.07-0.4,0.1-0.66,0.1c-0.12,0-0.23-0.01-0.34-0.04c-0.11-0.02-0.2-0.06-0.28-0.11
          c-0.08-0.05-0.14-0.11-0.18-0.2c-0.04-0.08-0.07-0.17-0.07-0.3c0-0.19,0.04-0.33,0.12-0.43c0.08-0.11,0.19-0.19,0.33-0.25
          c0.14-0.06,0.3-0.11,0.48-0.13c0.18-0.03,0.37-0.05,0.55-0.08c0.18-0.02,0.36-0.05,0.53-0.09c0.11-0.02,0.21-0.06,0.3-0.1V5.36z
           M65.78,7.28c0.26,0,0.47-0.04,0.63-0.14l0.04-0.02v-0.8l-0.11,0.04c-0.09,0.03-0.17,0.04-0.22,0.04C66,6.39,65.99,6.37,65.97,6.33
          c-0.02-0.08-0.03-0.21-0.03-0.4V3.38c0-0.3-0.06-0.55-0.18-0.74c-0.12-0.19-0.27-0.34-0.46-0.45c-0.19-0.1-0.4-0.17-0.63-0.21
          c-0.22-0.03-0.45-0.05-0.68-0.05c-0.28,0-0.55,0.03-0.81,0.09c-0.26,0.06-0.49,0.16-0.69,0.3c-0.2,0.14-0.37,0.32-0.49,0.54
          c-0.12,0.23-0.19,0.5-0.2,0.81l0,0.09h0.98l0-0.08c0.02-0.35,0.13-0.56,0.33-0.67c0.21-0.12,0.49-0.19,0.82-0.19
          c0.12,0,0.25,0.01,0.38,0.03c0.12,0.02,0.23,0.05,0.33,0.11c0.09,0.05,0.17,0.12,0.23,0.22c0.06,0.09,0.09,0.22,0.09,0.39
          c0,0.14-0.04,0.22-0.11,0.29c-0.08,0.07-0.19,0.12-0.33,0.16c-0.15,0.04-0.32,0.07-0.52,0.09c-0.2,0.02-0.42,0.06-0.64,0.1
          c-0.21,0.04-0.42,0.09-0.62,0.15c-0.21,0.06-0.4,0.15-0.56,0.27c-0.17,0.12-0.3,0.28-0.4,0.47c-0.1,0.2-0.15,0.44-0.15,0.73
          c0,0.26,0.04,0.49,0.14,0.68c0.09,0.19,0.22,0.34,0.38,0.46c0.16,0.12,0.35,0.2,0.55,0.25c0.21,0.05,0.42,0.07,0.65,0.07
          c0.35,0,0.69-0.06,0.99-0.18c0.25-0.1,0.48-0.25,0.68-0.45c0.03,0.18,0.09,0.33,0.2,0.44C65.36,7.21,65.55,7.28,65.78,7.28
          L65.78,7.28z M60.33,5.26c-0.05,0.22-0.13,0.42-0.24,0.59c-0.11,0.17-0.25,0.3-0.43,0.4C59.49,6.35,59.27,6.4,59,6.4
          c-0.27,0-0.5-0.05-0.68-0.15c-0.19-0.1-0.34-0.23-0.45-0.39c-0.12-0.16-0.2-0.35-0.26-0.57c-0.06-0.22-0.08-0.45-0.08-0.68
          c0-0.22,0.03-0.44,0.08-0.66c0.05-0.21,0.14-0.4,0.25-0.57c0.11-0.17,0.26-0.3,0.44-0.4c0.18-0.1,0.39-0.15,0.66-0.15
          c0.25,0,0.47,0.05,0.65,0.14c0.18,0.1,0.33,0.23,0.45,0.39c0.12,0.16,0.21,0.35,0.27,0.56c0.06,0.21,0.09,0.43,0.09,0.65
          C60.4,4.8,60.38,5.03,60.33,5.26 M60.85,2.75c-0.2-0.25-0.44-0.45-0.74-0.6c-0.3-0.15-0.65-0.22-1.04-0.22
          c-0.36,0-0.68,0.07-0.98,0.19c-0.22,0.09-0.4,0.23-0.53,0.41v-2.4h-0.98v7.04h0.98V6.66c0.06,0.08,0.14,0.14,0.21,0.2
          c0.14,0.1,0.28,0.19,0.44,0.25c0.15,0.06,0.31,0.1,0.46,0.13c0.15,0.03,0.29,0.04,0.42,0.04c0.39,0,0.73-0.07,1.03-0.21
          c0.3-0.14,0.54-0.33,0.74-0.58c0.2-0.24,0.34-0.53,0.44-0.85c0.1-0.32,0.14-0.66,0.14-1.02c0-0.36-0.05-0.7-0.15-1.02
          C61.19,3.28,61.04,2.99,60.85,2.75 M43.01,5.26c-0.05,0.22-0.13,0.42-0.24,0.59c-0.11,0.17-0.25,0.3-0.43,0.4
          c-0.17,0.1-0.39,0.15-0.66,0.15c-0.27,0-0.5-0.05-0.68-0.15c-0.19-0.1-0.34-0.23-0.46-0.39c-0.12-0.16-0.2-0.35-0.26-0.57
          c-0.06-0.22-0.08-0.45-0.08-0.68c0-0.22,0.03-0.44,0.08-0.66c0.05-0.21,0.14-0.4,0.25-0.57c0.11-0.17,0.26-0.3,0.44-0.4
          c0.18-0.1,0.39-0.15,0.66-0.15c0.25,0,0.46,0.05,0.65,0.14c0.18,0.1,0.33,0.23,0.45,0.39C42.85,3.51,42.94,3.7,43,3.91
          c0.06,0.21,0.09,0.43,0.09,0.65C43.09,4.8,43.06,5.03,43.01,5.26 M43.53,2.75c-0.2-0.25-0.44-0.45-0.74-0.6
          C42.5,2,42.15,1.93,41.75,1.93c-0.36,0-0.68,0.07-0.98,0.19c-0.22,0.09-0.4,0.23-0.53,0.41V2.05h-0.98v7.02h0.98v-2.4
          c0.06,0.08,0.14,0.14,0.21,0.2c0.14,0.1,0.28,0.19,0.44,0.25c0.15,0.06,0.31,0.1,0.46,0.13c0.15,0.03,0.29,0.04,0.42,0.04
          c0.39,0,0.73-0.07,1.03-0.21c0.3-0.14,0.54-0.33,0.74-0.58c0.2-0.24,0.34-0.53,0.44-0.85c0.1-0.32,0.14-0.66,0.14-1.02
          c0-0.36-0.05-0.7-0.15-1.02C43.88,3.28,43.73,2.99,43.53,2.75"
          />
          <path
            style="fill: #ec6726"
            d="M47.18,3.07c0.7,0,1.29,0.44,1.52,1.07c0.53,0.07,0.94,0.19,1.14,0.32c-0.12-1.36-1.26-2.43-2.66-2.43
          c-1.39,0-2.53,1.06-2.66,2.42c0.21-0.13,0.62-0.23,1.14-0.3C45.89,3.51,46.48,3.07,47.18,3.07"
          />
          <path
            style="fill: #ec6726"
            d="M47.18,6.29c-0.73,0-1.35-0.49-1.55-1.15c-0.51-0.07-0.91-0.18-1.12-0.3c0.08,1.4,1.24,2.52,2.66,2.52
          c1.43,0,2.59-1.12,2.67-2.53c-0.2,0.13-0.6,0.24-1.12,0.32C48.53,5.8,47.91,6.29,47.18,6.29"
          />
          <g>
            <path
              style="fill: #1e448a"
              d="M0.58,3.7v0.47h0.01c0.09-0.19,0.24-0.34,0.45-0.42s0.43-0.13,0.67-0.13c0.27,0,0.51,0.05,0.71,0.15
            c0.2,0.1,0.37,0.23,0.5,0.4s0.23,0.37,0.3,0.59c0.07,0.22,0.1,0.46,0.1,0.7c0,0.25-0.03,0.48-0.1,0.71s-0.17,0.41-0.3,0.58
            s-0.3,0.29-0.5,0.39c-0.2,0.09-0.43,0.14-0.7,0.14c-0.09,0-0.18-0.01-0.29-0.03C1.33,7.24,1.22,7.21,1.12,7.17
            C1.01,7.12,0.92,7.07,0.82,7C0.73,6.93,0.65,6.84,0.59,6.74H0.58v1.8H0V3.7H0.58z M2.65,4.95C2.6,4.79,2.54,4.65,2.45,4.53
            c-0.09-0.12-0.2-0.22-0.34-0.29c-0.14-0.07-0.3-0.11-0.48-0.11c-0.19,0-0.36,0.04-0.5,0.12S0.88,4.42,0.8,4.55
            C0.71,4.67,0.65,4.81,0.61,4.97C0.57,5.13,0.56,5.29,0.56,5.45c0,0.17,0.02,0.34,0.06,0.5c0.04,0.16,0.11,0.3,0.19,0.42
            s0.2,0.22,0.34,0.29c0.14,0.07,0.31,0.11,0.51,0.11c0.2,0,0.37-0.04,0.5-0.12c0.13-0.08,0.24-0.18,0.32-0.3
            c0.08-0.13,0.14-0.27,0.18-0.43c0.04-0.16,0.05-0.33,0.05-0.5C2.71,5.26,2.69,5.1,2.65,4.95z"
            />
            <path
              style="fill: #1e448a"
              d="M4.08,4.74C4.15,4.51,4.26,4.32,4.4,4.15s0.32-0.29,0.54-0.39C5.15,3.67,5.4,3.62,5.67,3.62
            c0.28,0,0.52,0.05,0.73,0.14c0.21,0.09,0.39,0.22,0.53,0.39s0.25,0.36,0.33,0.58S7.37,5.2,7.37,5.46c0,0.26-0.04,0.5-0.11,0.72
            C7.19,6.4,7.08,6.59,6.94,6.76S6.62,7.05,6.41,7.14C6.2,7.23,5.95,7.28,5.67,7.28c-0.28,0-0.52-0.05-0.73-0.14
            C4.73,7.05,4.55,6.92,4.4,6.76S4.15,6.4,4.08,6.18C4.01,5.95,3.97,5.72,3.97,5.46C3.97,5.2,4.01,4.96,4.08,4.74z M4.67,6.02
            C4.72,6.19,4.8,6.33,4.9,6.44s0.22,0.2,0.35,0.25c0.13,0.06,0.27,0.09,0.42,0.09c0.15,0,0.29-0.03,0.42-0.09
            c0.13-0.06,0.25-0.14,0.35-0.25c0.1-0.11,0.18-0.25,0.23-0.41s0.08-0.35,0.08-0.57c0-0.21-0.03-0.4-0.08-0.57
            c-0.06-0.16-0.13-0.3-0.23-0.42c-0.1-0.11-0.22-0.2-0.35-0.26C5.96,4.16,5.82,4.13,5.67,4.13c-0.15,0-0.29,0.03-0.42,0.09
            C5.11,4.28,5,4.36,4.9,4.48C4.8,4.59,4.72,4.73,4.67,4.89C4.61,5.06,4.58,5.25,4.58,5.46C4.58,5.67,4.61,5.86,4.67,6.02z"
            />
            <path
              style="fill: #1e448a"
              d="M10.94,7.21l-0.71-2.78h-0.01l-0.7,2.78H8.89L7.77,3.7H8.4L9.2,6.57h0.01L9.91,3.7h0.63l0.73,2.87h0.01
            l0.79-2.87h0.6l-1.12,3.5H10.94z"
            />
            <path
              style="fill: #1e448a"
              d="M15.73,6.98c-0.26,0.2-0.59,0.3-0.99,0.3c-0.28,0-0.52-0.05-0.73-0.14c-0.21-0.09-0.38-0.22-0.52-0.38
            c-0.14-0.16-0.25-0.36-0.32-0.58s-0.11-0.47-0.12-0.74c0-0.27,0.04-0.51,0.12-0.73c0.08-0.22,0.2-0.41,0.34-0.58
            c0.15-0.16,0.32-0.29,0.52-0.38c0.2-0.09,0.42-0.13,0.66-0.13c0.31,0,0.57,0.06,0.78,0.19c0.21,0.13,0.37,0.29,0.49,0.49
            c0.12,0.2,0.21,0.42,0.26,0.65c0.05,0.24,0.07,0.46,0.06,0.67h-2.62c0,0.15,0.01,0.3,0.05,0.44c0.04,0.14,0.11,0.26,0.2,0.37
            c0.09,0.11,0.21,0.19,0.34,0.25c0.14,0.06,0.31,0.09,0.5,0.09c0.24,0,0.44-0.06,0.6-0.17c0.16-0.11,0.26-0.29,0.31-0.51h0.57
            C16.16,6.49,16,6.78,15.73,6.98z M15.59,4.73c-0.05-0.12-0.12-0.23-0.21-0.31c-0.09-0.09-0.19-0.16-0.31-0.21
            c-0.12-0.05-0.25-0.08-0.4-0.08c-0.15,0-0.28,0.03-0.4,0.08c-0.12,0.05-0.22,0.12-0.31,0.21c-0.09,0.09-0.15,0.2-0.2,0.32
            c-0.05,0.12-0.08,0.25-0.09,0.38h2.01C15.68,4.98,15.65,4.86,15.59,4.73z"
            />
            <path
              style="fill: #1e448a"
              d="M17.6,3.7v0.74h0.01c0.14-0.28,0.31-0.49,0.51-0.63s0.46-0.2,0.77-0.19v0.61c-0.23,0-0.43,0.03-0.59,0.09
            c-0.16,0.06-0.29,0.16-0.39,0.28c-0.1,0.12-0.17,0.27-0.22,0.44s-0.07,0.37-0.07,0.6v1.56h-0.58V3.7H17.6z"
            />
            <path
              style="fill: #1e448a"
              d="M21.94,6.98c-0.26,0.2-0.59,0.3-0.99,0.3c-0.28,0-0.52-0.05-0.73-0.14c-0.21-0.09-0.38-0.22-0.52-0.38
            c-0.14-0.16-0.25-0.36-0.32-0.58s-0.11-0.47-0.12-0.74c0-0.27,0.04-0.51,0.12-0.73c0.08-0.22,0.2-0.41,0.34-0.58
            c0.15-0.16,0.32-0.29,0.52-0.38c0.2-0.09,0.42-0.13,0.66-0.13c0.31,0,0.57,0.06,0.78,0.19c0.21,0.13,0.37,0.29,0.49,0.49
            c0.12,0.2,0.21,0.42,0.26,0.65c0.05,0.24,0.07,0.46,0.06,0.67h-2.62c0,0.15,0.01,0.3,0.05,0.44c0.04,0.14,0.11,0.26,0.2,0.37
            c0.09,0.11,0.21,0.19,0.34,0.25c0.14,0.06,0.31,0.09,0.5,0.09c0.24,0,0.44-0.06,0.6-0.17c0.16-0.11,0.26-0.29,0.31-0.51h0.57
            C22.37,6.49,22.2,6.78,21.94,6.98z M21.8,4.73c-0.05-0.12-0.12-0.23-0.21-0.31c-0.09-0.09-0.19-0.16-0.31-0.21
            c-0.12-0.05-0.25-0.08-0.4-0.08c-0.15,0-0.28,0.03-0.4,0.08c-0.12,0.05-0.22,0.12-0.31,0.21c-0.09,0.09-0.15,0.2-0.2,0.32
            c-0.05,0.12-0.08,0.25-0.09,0.38h2.01C21.88,4.98,21.85,4.86,21.8,4.73z"
            />
            <path
              style="fill: #1e448a"
              d="M25.84,7.21V6.73h-0.01c-0.09,0.19-0.24,0.33-0.45,0.42c-0.2,0.09-0.43,0.13-0.67,0.13
            c-0.27,0-0.51-0.05-0.71-0.15s-0.37-0.23-0.5-0.4c-0.13-0.17-0.23-0.36-0.3-0.58c-0.07-0.22-0.1-0.46-0.1-0.7
            c0-0.25,0.03-0.48,0.1-0.71c0.07-0.22,0.17-0.41,0.3-0.58c0.13-0.17,0.3-0.3,0.5-0.39c0.2-0.1,0.43-0.15,0.7-0.15
            c0.09,0,0.19,0.01,0.29,0.03c0.1,0.02,0.21,0.05,0.31,0.09c0.1,0.04,0.2,0.1,0.29,0.17c0.09,0.07,0.17,0.16,0.23,0.26h0.01v-1.8
            h0.58v4.84H25.84z M23.77,5.96c0.04,0.16,0.11,0.29,0.2,0.42s0.2,0.22,0.34,0.29s0.3,0.11,0.48,0.11c0.19,0,0.36-0.04,0.49-0.12
            c0.14-0.08,0.25-0.18,0.33-0.3c0.09-0.12,0.15-0.27,0.19-0.42s0.06-0.32,0.06-0.48c0-0.17-0.02-0.34-0.06-0.5
            c-0.04-0.16-0.1-0.3-0.19-0.42s-0.2-0.22-0.34-0.29c-0.14-0.07-0.31-0.11-0.51-0.11c-0.19,0-0.36,0.04-0.49,0.12
            s-0.24,0.18-0.33,0.3c-0.08,0.13-0.14,0.27-0.18,0.43c-0.04,0.16-0.05,0.33-0.05,0.5C23.71,5.65,23.73,5.81,23.77,5.96z"
            />
            <path
              style="fill: #1e448a"
              d="M29.78,2.37v1.81h0.01c0.09-0.19,0.24-0.34,0.45-0.42s0.43-0.13,0.67-0.13c0.27,0,0.51,0.05,0.71,0.15
            c0.2,0.1,0.37,0.23,0.5,0.4s0.23,0.37,0.3,0.59c0.07,0.22,0.1,0.46,0.1,0.7c0,0.25-0.03,0.48-0.1,0.71s-0.17,0.41-0.3,0.58
            s-0.3,0.29-0.5,0.39c-0.2,0.09-0.43,0.14-0.7,0.14c-0.09,0-0.18-0.01-0.29-0.03c-0.11-0.02-0.21-0.05-0.32-0.09
            c-0.1-0.04-0.2-0.1-0.29-0.17c-0.09-0.07-0.17-0.16-0.23-0.26h-0.01v0.47h-0.58V2.37H29.78z M31.85,4.95
            c-0.04-0.16-0.11-0.29-0.2-0.42c-0.09-0.12-0.2-0.22-0.34-0.29c-0.14-0.07-0.3-0.11-0.48-0.11c-0.19,0-0.36,0.04-0.5,0.12
            s-0.25,0.18-0.33,0.3c-0.09,0.12-0.15,0.26-0.19,0.42c-0.04,0.16-0.06,0.32-0.06,0.48c0,0.17,0.02,0.34,0.06,0.5
            c0.04,0.16,0.11,0.3,0.19,0.42s0.2,0.22,0.34,0.29c0.14,0.07,0.31,0.11,0.51,0.11c0.2,0,0.37-0.04,0.5-0.12
            c0.13-0.08,0.24-0.18,0.32-0.3c0.08-0.13,0.14-0.27,0.18-0.43c0.04-0.16,0.05-0.33,0.05-0.5C31.92,5.26,31.9,5.1,31.85,4.95z"
            />
            <path
              style="fill: #1e448a"
              d="M34.61,7.67c-0.07,0.17-0.13,0.32-0.2,0.43s-0.14,0.21-0.22,0.29c-0.08,0.07-0.17,0.13-0.26,0.16
            c-0.1,0.03-0.21,0.05-0.33,0.05c-0.07,0-0.14,0-0.2-0.01c-0.07-0.01-0.13-0.02-0.2-0.05V8.02c0.05,0.02,0.11,0.04,0.17,0.06
            c0.07,0.02,0.12,0.02,0.17,0.02c0.12,0,0.22-0.03,0.29-0.08S33.96,7.88,34,7.78l0.24-0.59L32.85,3.7h0.65l1.02,2.87h0.01
            l0.98-2.87h0.61L34.61,7.67z"
            />
            <path
              style="fill: #1e448a"
              d="M37.26,6.45v0.75h-0.75V6.45H37.26z"
            />
          </g>
        </g>
      </svg>